<svg xmlns="http://www.w3.org/2000/svg" width="29" height="28" viewBox="0 0 29 28" fill="none">
  <path d="M25.875 13.125H24.9628C24.7528 10.6525 23.6753 8.33394 21.9207 6.57934C20.1661 4.82473 17.8475 3.74716 15.375 3.53719V2.625C15.375 2.39294 15.2828 2.17038 15.1187 2.00628C14.9546 1.84219 14.7321 1.75 14.5 1.75C14.2679 1.75 14.0454 1.84219 13.8813 2.00628C13.7172 2.17038 13.625 2.39294 13.625 2.625V3.53719C11.1525 3.74716 8.83394 4.82473 7.07934 6.57934C5.32473 8.33394 4.24716 10.6525 4.03719 13.125H3.125C2.89294 13.125 2.67038 13.2172 2.50628 13.3813C2.34219 13.5454 2.25 13.7679 2.25 14C2.25 14.2321 2.34219 14.4546 2.50628 14.6187C2.67038 14.7828 2.89294 14.875 3.125 14.875H4.03719C4.24716 17.3475 5.32473 19.6661 7.07934 21.4207C8.83394 23.1753 11.1525 24.2528 13.625 24.4628V25.375C13.625 25.6071 13.7172 25.8296 13.8813 25.9937C14.0454 26.1578 14.2679 26.25 14.5 26.25C14.7321 26.25 14.9546 26.1578 15.1187 25.9937C15.2828 25.8296 15.375 25.6071 15.375 25.375V24.4628C17.8475 24.2528 20.1661 23.1753 21.9207 21.4207C23.6753 19.6661 24.7528 17.3475 24.9628 14.875H25.875C26.1071 14.875 26.3296 14.7828 26.4937 14.6187C26.6578 14.4546 26.75 14.2321 26.75 14C26.75 13.7679 26.6578 13.5454 26.4937 13.3813C26.3296 13.2172 26.1071 13.125 25.875 13.125ZM15.375 22.7063V21.875C15.375 21.6429 15.2828 21.4204 15.1187 21.2563C14.9546 21.0922 14.7321 21 14.5 21C14.2679 21 14.0454 21.0922 13.8813 21.2563C13.7172 21.4204 13.625 21.6429 13.625 21.875V22.7063C11.6178 22.5014 9.74274 21.6106 8.31609 20.1839C6.88944 18.7573 5.99855 16.8822 5.79375 14.875H6.625C6.85706 14.875 7.07962 14.7828 7.24372 14.6187C7.40781 14.4546 7.5 14.2321 7.5 14C7.5 13.7679 7.40781 13.5454 7.24372 13.3813C7.07962 13.2172 6.85706 13.125 6.625 13.125H5.79375C5.99855 11.1178 6.88944 9.24274 8.31609 7.81609C9.74274 6.38944 11.6178 5.49855 13.625 5.29375V6.125C13.625 6.35706 13.7172 6.57962 13.8813 6.74372C14.0454 6.90781 14.2679 7 14.5 7C14.7321 7 14.9546 6.90781 15.1187 6.74372C15.2828 6.57962 15.375 6.35706 15.375 6.125V5.29375C17.3822 5.49855 19.2573 6.38944 20.6839 7.81609C22.1106 9.24274 23.0014 11.1178 23.2063 13.125H22.375C22.1429 13.125 21.9204 13.2172 21.7563 13.3813C21.5922 13.5454 21.5 13.7679 21.5 14C21.5 14.2321 21.5922 14.4546 21.7563 14.6187C21.9204 14.7828 22.1429 14.875 22.375 14.875H23.2063C23.0014 16.8822 22.1106 18.7573 20.6839 20.1839C19.2573 21.6106 17.3822 22.5014 15.375 22.7063ZM14.5 9.625C13.6347 9.625 12.7888 9.88159 12.0694 10.3623C11.3499 10.8431 10.7892 11.5263 10.458 12.3258C10.1269 13.1252 10.0403 14.0049 10.2091 14.8535C10.3779 15.7022 10.7946 16.4817 11.4064 17.0936C12.0183 17.7054 12.7978 18.1221 13.6465 18.2909C14.4951 18.4597 15.3748 18.3731 16.1742 18.042C16.9737 17.7108 17.6569 17.1501 18.1377 16.4306C18.6184 15.7112 18.875 14.8653 18.875 14C18.875 12.8397 18.4141 11.7269 17.5936 10.9064C16.7731 10.0859 15.6603 9.625 14.5 9.625ZM14.5 16.625C13.9808 16.625 13.4733 16.471 13.0416 16.1826C12.6099 15.8942 12.2735 15.4842 12.0748 15.0045C11.8761 14.5249 11.8242 13.9971 11.9254 13.4879C12.0267 12.9787 12.2767 12.511 12.6438 12.1438C13.011 11.7767 13.4787 11.5267 13.9879 11.4254C14.4971 11.3242 15.0249 11.3761 15.5045 11.5748C15.9842 11.7735 16.3942 12.1099 16.6826 12.5416C16.971 12.9733 17.125 13.4808 17.125 14C17.125 14.6962 16.8484 15.3639 16.3562 15.8562C15.8639 16.3484 15.1962 16.625 14.5 16.625Z" fill="#562C2C"/>
</svg>