<svg xmlns="http://www.w3.org/2000/svg" width="29" height="28" viewBox="0 0 29 28" fill="none">
  <path d="M24.0653 8.00532V1.75M22.7727 10.0904C22.7727 10.3997 22.8637 10.7021 23.0341 10.9592C23.2046 11.2164 23.4468 11.4169 23.7303 11.5352C24.0137 11.6536 24.3256 11.6845 24.6265 11.6242C24.9274 11.5639 25.2038 11.4149 25.4207 11.1962C25.6376 10.9775 25.7853 10.6989 25.8452 10.3955C25.905 10.0922 25.8743 9.77773 25.7569 9.49197C25.6395 9.20622 25.4407 8.96198 25.1856 8.79015C24.9819 8.65291 24.7496 8.56678 24.508 8.53766C24.3907 8.52352 24.2771 8.47941 24.1939 8.39553V8.39553C24.1115 8.31253 24.0653 8.20036 24.0653 8.08346V7.48404M12.4318 22.6011C10.1465 22.6011 8.29545 20.5003 8.29545 17.9096C8.29545 15.3188 10.1465 13.2181 12.4318 13.2181H13.2591C15.8391 13.2181 17.569 12.7067 19.6113 10.671C19.6489 10.6335 19.6705 10.5819 19.6705 10.5287V10.5287C19.6705 10.4272 19.5947 10.3417 19.4941 10.3279C17.9618 10.1181 17.0313 9.76969 16.7027 9.62991C16.619 9.5943 16.5682 9.51176 16.5682 9.42078V9.42078C16.5682 9.34961 16.5987 9.28288 16.6545 9.23867C16.9911 8.97188 18.2704 8.0084 19.7559 7.53647C19.858 7.50405 19.929 7.4103 19.929 7.30321V7.30321C19.929 7.2514 19.9122 7.20082 19.8809 7.15958C18.3024 5.0845 15.9216 3.83511 13.2591 3.83511H12.4318C11.388 3.83404 10.3515 4.01026 9.36574 4.35638M12.4318 22.6011C9.9635 22.6011 7.59627 21.6125 5.8509 19.8529C4.10554 18.0932 3.125 15.7066 3.125 13.2181M12.4318 22.6011C13.52 20.6358 15.5317 19.0302 17.8462 18.9549C17.9398 18.9518 18.0159 19.0281 18.0159 19.1217V19.1217C18.0159 19.1786 17.9884 19.2311 17.9426 19.2647C17.5861 19.526 16.0511 20.7581 16.0511 22.6011C16.0511 24.444 17.5861 25.6761 17.9426 25.9375C17.9884 25.9711 18.0159 26.0235 18.0159 26.0804V26.0804C18.0159 26.1741 17.9398 26.2503 17.8462 26.2472C15.5317 26.172 13.52 24.5663 12.4318 22.6011ZM9.36574 4.35638H9.32955C7.45434 4.35638 5.83073 3.26933 5.34268 2.90786C5.24397 2.83476 5.12597 2.79255 5.00314 2.79255V2.79255C4.80284 2.79255 4.62197 2.90471 4.54811 3.09089C4.17668 4.02722 3.125 7.20894 3.125 13.2181M9.36574 4.35638C7.54233 4.99847 5.96211 6.19635 4.84396 7.78409C3.72581 9.37183 3.12509 11.2708 3.125 13.2181M14.5 8.00532V5.92021" stroke="#562C2C" stroke-width="1.25"/>
</svg>