<svg xmlns="http://www.w3.org/2000/svg" width="29" height="28" viewBox="0 0 29 28" fill="none">
  <path d="M18.4376 8.75C19.0433 8.75 19.6354 8.57039 20.1391 8.23388C20.6427 7.89737 21.0352 7.41907 21.267 6.85947C21.4988 6.29987 21.5595 5.6841 21.4413 5.09004C21.3231 4.49597 21.0315 3.95029 20.6032 3.52199C20.1749 3.09369 19.6292 2.80201 19.0351 2.68385C18.441 2.56568 17.8253 2.62633 17.2657 2.85812C16.7061 3.08991 16.2278 3.48244 15.8913 3.98607C15.5547 4.48969 15.3751 5.0818 15.3751 5.6875C15.3751 6.49973 15.6978 7.27869 16.2721 7.85302C16.8465 8.42735 17.6254 8.75 18.4376 8.75ZM18.4376 4.375C18.6972 4.375 18.951 4.45198 19.1668 4.5962C19.3827 4.74042 19.5509 4.9454 19.6502 5.18523C19.7496 5.42506 19.7756 5.68896 19.7249 5.94356C19.6743 6.19816 19.5493 6.43202 19.3657 6.61558C19.1822 6.79914 18.9483 6.92414 18.6937 6.97478C18.4391 7.02542 18.1752 6.99943 17.9354 6.90009C17.6955 6.80075 17.4906 6.63253 17.3463 6.41669C17.2021 6.20085 17.1251 5.94709 17.1251 5.6875C17.1251 5.3394 17.2634 5.00557 17.5096 4.75942C17.7557 4.51328 18.0895 4.375 18.4376 4.375ZM28.3776 21.4288L22.4101 11.3575C22.2562 11.0951 22.0361 10.8778 21.7718 10.7273C21.5074 10.5768 21.2082 10.4984 20.904 10.5C20.6 10.4984 20.3009 10.5768 20.0368 10.7273C19.7726 10.8778 19.5527 11.0952 19.399 11.3575L16.5378 16.1875L11.6334 7.86406C11.4789 7.60141 11.2584 7.38367 10.9939 7.23239C10.7293 7.0811 10.4299 7.00152 10.1251 7.00152C9.82039 7.00152 9.52093 7.0811 9.25639 7.23239C8.99185 7.38367 8.7714 7.60141 8.61686 7.86406L0.621543 21.4309C0.543282 21.5638 0.501527 21.715 0.500507 21.8692C0.499488 22.0234 0.53924 22.1752 0.615737 22.3091C0.692234 22.443 0.802759 22.5543 0.936117 22.6317C1.06947 22.7091 1.22093 22.7499 1.37514 22.75H27.6251C27.7796 22.75 27.9313 22.7091 28.0648 22.6314C28.1983 22.5538 28.3089 22.4422 28.3853 22.308C28.4617 22.1738 28.5013 22.0218 28.5 21.8674C28.4986 21.7129 28.4564 21.5616 28.3776 21.4288ZM10.1251 8.75L12.7031 13.125H7.54717L10.1251 8.75ZM2.90639 21L6.51576 14.875H13.7345L15.7842 18.3531L17.3439 21H2.90639ZM19.375 21L17.5528 17.9069L20.904 12.25L26.0939 21H19.375Z" fill="#562C2C"/>
</svg>